P3
4 4
255
12 13 255
255 6 0
0 255 0
255 255 0
0 255 255
12 13 255
255 6 0
0 255 0
255 0 255
0 0 255
12 13 255
255 6 0
0 255 255
255 0 0
0 0 255
255 0 255